<svg width="20" height="20" viewBox="0 0 20 20" fill="none" xmlns="http://www.w3.org/2000/svg">
<path d="M4.87484 14.25C5.58317 13.7083 6.37484 13.2812 7.24984 12.9687C8.12484 12.6562 9.0415 12.5 9.99984 12.5C10.9582 12.5 11.8748 12.6562 12.7498 12.9687C13.6248 13.2812 14.4165 13.7083 15.1248 14.25C15.6109 13.6805 15.9894 13.0347 16.2603 12.3125C16.5311 11.5902 16.6665 10.8194 16.6665 9.99996C16.6665 8.15274 16.0172 6.57982 14.7186 5.28121C13.42 3.9826 11.8471 3.33329 9.99984 3.33329C8.15262 3.33329 6.5797 3.9826 5.28109 5.28121C3.98248 6.57982 3.33317 8.15274 3.33317 9.99996C3.33317 10.8194 3.46859 11.5902 3.73942 12.3125C4.01025 13.0347 4.38873 13.6805 4.87484 14.25ZM9.99984 10.8333C9.18039 10.8333 8.48942 10.552 7.92692 9.98954C7.36442 9.42704 7.08317 8.73607 7.08317 7.91663C7.08317 7.09718 7.36442 6.40621 7.92692 5.84371C8.48942 5.28121 9.18039 4.99996 9.99984 4.99996C10.8193 4.99996 11.5103 5.28121 12.0728 5.84371C12.6353 6.40621 12.9165 7.09718 12.9165 7.91663C12.9165 8.73607 12.6353 9.42704 12.0728 9.98954C11.5103 10.552 10.8193 10.8333 9.99984 10.8333ZM9.99984 18.3333C8.84706 18.3333 7.76373 18.1145 6.74984 17.677C5.73595 17.2395 4.854 16.6458 4.104 15.8958C3.354 15.1458 2.76025 14.2638 2.32275 13.25C1.88525 12.2361 1.6665 11.1527 1.6665 9.99996C1.6665 8.84718 1.88525 7.76385 2.32275 6.74996C2.76025 5.73607 3.354 4.85413 4.104 4.10413C4.854 3.35413 5.73595 2.76038 6.74984 2.32288C7.76373 1.88538 8.84706 1.66663 9.99984 1.66663C11.1526 1.66663 12.2359 1.88538 13.2498 2.32288C14.2637 2.76038 15.1457 3.35413 15.8957 4.10413C16.6457 4.85413 17.2394 5.73607 17.6769 6.74996C18.1144 7.76385 18.3332 8.84718 18.3332 9.99996C18.3332 11.1527 18.1144 12.2361 17.6769 13.25C17.2394 14.2638 16.6457 15.1458 15.8957 15.8958C15.1457 16.6458 14.2637 17.2395 13.2498 17.677C12.2359 18.1145 11.1526 18.3333 9.99984 18.3333Z" fill="#64748B"/>
</svg>
