<svg width="137" height="212" viewBox="0 0 137 212" fill="none" xmlns="http://www.w3.org/2000/svg">
<path d="M35.5763 170.792C39.7883 170.792 43.2029 167.37 43.2029 163.148C43.2029 158.926 39.7883 155.504 35.5763 155.504C31.3642 155.504 27.9496 158.926 27.9496 163.148C27.9496 167.37 31.3642 170.792 35.5763 170.792Z" fill="#4C4DDC"/>
<path d="M100.2 170.792C104.412 170.792 107.827 167.37 107.827 163.148C107.827 158.926 104.412 155.504 100.2 155.504C95.9882 155.504 92.5736 158.926 92.5736 163.148C92.5736 167.37 95.9882 170.792 100.2 170.792Z" fill="#4C4DDC"/>
<path d="M108.957 21.4658H26.7062C18.5022 21.4658 11.8515 28.1316 11.8515 36.3543V148.26C11.8515 156.482 18.5022 163.148 26.7062 163.148H108.957C117.161 163.148 123.811 156.482 123.811 148.26V36.3543C123.811 28.1316 117.161 21.4658 108.957 21.4658Z" fill="#4C4DDC"/>
<path d="M83.0239 0H52.5334C40.124 0.58723 41.5608 12.7453 41.6983 21.7195H52.1986V12.8691C52.1986 11.1354 53.6135 9.71526 55.3453 9.71526H80.212C81.9418 9.71526 83.3587 11.1334 83.3587 12.8691V21.7195H93.859C93.9965 12.7333 95.4314 0.58723 83.0239 0Z" fill="#4C4DDC"/>
<path d="M45.0364 41.6333C45.7677 41.6333 46.4852 41.6872 47.1906 41.7811C45.5166 41.0561 43.6713 40.6526 41.7302 40.6526C34.1196 40.6526 27.9517 46.8365 27.9517 54.4625C27.9517 56.4079 28.3543 58.2575 29.0777 59.9353C28.984 59.2282 28.9302 58.5092 28.9302 57.7761C28.9302 48.8598 36.1403 41.6333 45.0364 41.6333Z" fill="url(#paint0_linear_752_4913)"/>
<path d="M47.1906 41.781C52.083 43.9002 55.5087 48.7798 55.5087 54.4624C55.5087 62.0904 49.3389 68.2723 41.7302 68.2723C36.0606 68.2723 31.192 64.8388 29.0776 59.9352C30.1319 67.8288 36.8716 73.9189 45.0363 73.9189C53.9324 73.9189 61.1425 66.6923 61.1425 57.776C61.1425 49.5928 55.0663 42.8376 47.1906 41.781Z" fill="#3632C9"/>
<path opacity="0.8" d="M41.7282 68.2724C49.3389 68.2724 55.5067 62.0885 55.5067 54.4625C55.5067 48.7799 52.081 43.9003 47.1886 41.7811C46.4831 41.6872 45.7657 41.6333 45.0343 41.6333C36.1383 41.6333 28.9282 48.8598 28.9282 57.7761C28.9282 58.5092 28.982 59.2282 29.0756 59.9353C31.19 64.8389 36.0586 68.2724 41.7282 68.2724Z" fill="#6533EF"/>
<path d="M96.9838 41.6333C97.7151 41.6333 98.4326 41.6872 99.138 41.7811C97.464 41.0561 95.6187 40.6526 93.6776 40.6526C86.067 40.6526 79.8991 46.8365 79.8991 54.4625C79.8991 56.4079 80.3017 58.2575 81.0251 59.9353C80.9314 59.2282 80.8776 58.5092 80.8776 57.7761C80.8776 48.8598 88.0877 41.6333 96.9838 41.6333Z" fill="url(#paint1_linear_752_4913)"/>
<path d="M99.138 41.781C104.03 43.9002 107.456 48.7798 107.456 54.4624C107.456 62.0904 101.286 68.2723 93.6776 68.2723C88.0079 68.2723 83.1394 64.8388 81.025 59.9352C82.0792 67.8288 88.819 73.9189 96.9837 73.9189C105.88 73.9189 113.09 66.6923 113.09 57.776C113.09 49.5928 107.014 42.8376 99.138 41.781Z" fill="#3632C9"/>
<path opacity="0.8" d="M93.6776 68.2724C101.288 68.2724 107.456 62.0885 107.456 54.4625C107.456 48.7799 104.03 43.9003 99.138 41.7811C98.4325 41.6872 97.7151 41.6333 96.9837 41.6333C88.0877 41.6333 80.8776 48.8598 80.8776 57.7761C80.8776 58.5092 80.9314 59.2282 81.025 59.9353C83.1394 64.8389 88.008 68.2724 93.6776 68.2724Z" fill="#6533EF"/>
<path d="M45.0363 79.22C45.7677 79.22 46.4851 79.2739 47.1906 79.3678C45.5166 78.6427 43.6712 78.2393 41.7302 78.2393C34.1195 78.2393 27.9517 84.4231 27.9517 92.0491C27.9517 93.9946 28.3542 95.8442 29.0776 97.522C28.984 96.8149 28.9301 96.0958 28.9301 95.3628C28.9301 86.4465 36.1403 79.22 45.0363 79.22Z" fill="url(#paint2_linear_752_4913)"/>
<path d="M47.1905 79.3677C52.083 81.4869 55.5087 86.3665 55.5087 92.049C55.5087 99.677 49.3388 105.859 41.7301 105.859C36.0605 105.859 31.192 102.425 29.0776 97.5219C30.1318 105.416 36.8716 111.506 45.0363 111.506C53.9323 111.506 61.1424 104.279 61.1424 95.3627C61.1424 87.1794 55.0662 80.4243 47.1905 79.3677Z" fill="#3632C9"/>
<path opacity="0.8" d="M41.7281 105.859C49.3388 105.859 55.5067 99.6751 55.5067 92.0491C55.5067 86.3666 52.081 81.487 47.1885 79.3678C46.4831 79.2739 45.7656 79.22 45.0343 79.22C36.1382 79.22 28.9281 86.4465 28.9281 95.3628C28.9281 96.0958 28.9819 96.8149 29.0756 97.522C31.19 102.426 36.0585 105.859 41.7281 105.859Z" fill="#6533EF"/>
<path d="M96.9838 79.22C97.7151 79.22 98.4326 79.2739 99.138 79.3678C97.464 78.6427 95.6187 78.2393 93.6776 78.2393C86.067 78.2393 79.8991 84.4231 79.8991 92.0491C79.8991 93.9946 80.3017 95.8442 81.0251 97.522C80.9314 96.8149 80.8776 96.0958 80.8776 95.3628C80.8776 86.4465 88.0877 79.22 96.9838 79.22Z" fill="url(#paint3_linear_752_4913)"/>
<path d="M99.138 79.3677C104.03 81.4869 107.456 86.3665 107.456 92.049C107.456 99.677 101.286 105.859 93.6776 105.859C88.0079 105.859 83.1394 102.425 81.025 97.5219C82.0792 105.416 88.819 111.506 96.9837 111.506C105.88 111.506 113.09 104.279 113.09 95.3627C113.09 87.1794 107.014 80.4243 99.138 79.3677Z" fill="#3632C9"/>
<path opacity="0.8" d="M93.6776 105.859C101.288 105.859 107.456 99.6751 107.456 92.0491C107.456 86.3666 104.03 81.487 99.138 79.3678C98.4325 79.2739 97.7151 79.22 96.9837 79.22C88.0877 79.22 80.8776 86.4465 80.8776 95.3628C80.8776 96.0958 80.9314 96.8149 81.025 97.522C83.1394 102.426 88.008 105.859 93.6776 105.859Z" fill="#6533EF"/>
<path d="M45.0363 116.907C45.7677 116.907 46.4851 116.96 47.1906 117.054C45.5166 116.329 43.6712 115.926 41.7302 115.926C34.1195 115.926 27.9517 122.11 27.9517 129.736C27.9517 131.681 28.3542 133.531 29.0776 135.208C28.984 134.501 28.9301 133.782 28.9301 133.049C28.9301 124.133 36.1403 116.907 45.0363 116.907Z" fill="url(#paint4_linear_752_4913)"/>
<path d="M47.1905 117.054C52.083 119.173 55.5087 124.053 55.5087 129.736C55.5087 137.364 49.3388 143.545 41.7301 143.545C36.0605 143.545 31.192 140.112 29.0776 135.208C30.1318 143.102 36.8716 149.192 45.0363 149.192C53.9323 149.192 61.1424 141.966 61.1424 133.049C61.1424 124.866 55.0662 118.111 47.1905 117.054Z" fill="#3632C9"/>
<path opacity="0.8" d="M41.7281 143.546C49.3388 143.546 55.5067 137.362 55.5067 129.736C55.5067 124.053 52.081 119.174 47.1885 117.054C46.4831 116.96 45.7656 116.906 45.0343 116.906C36.1382 116.906 28.9281 124.133 28.9281 133.049C28.9281 133.782 28.9819 134.501 29.0756 135.208C31.19 140.112 36.0585 143.546 41.7281 143.546Z" fill="#6533EF"/>
<path d="M96.9838 116.907C97.7151 116.907 98.4326 116.96 99.138 117.054C97.464 116.329 95.6187 115.926 93.6776 115.926C86.067 115.926 79.8991 122.11 79.8991 129.736C79.8991 131.681 80.3017 133.531 81.0251 135.208C80.9314 134.501 80.8776 133.782 80.8776 133.049C80.8776 124.133 88.0877 116.907 96.9838 116.907Z" fill="url(#paint5_linear_752_4913)"/>
<path d="M99.138 117.054C104.03 119.173 107.456 124.053 107.456 129.736C107.456 137.364 101.286 143.545 93.6776 143.545C88.0079 143.545 83.1394 140.112 81.025 135.208C82.0792 143.102 88.819 149.192 96.9837 149.192C105.88 149.192 113.09 141.966 113.09 133.049C113.09 124.866 107.014 118.111 99.138 117.054Z" fill="#3632C9"/>
<path opacity="0.8" d="M93.6776 143.546C101.288 143.546 107.456 137.362 107.456 129.736C107.456 124.053 104.03 119.174 99.138 117.054C98.4325 116.96 97.7151 116.906 96.9837 116.906C88.0877 116.906 80.8776 124.133 80.8776 133.049C80.8776 133.782 80.9314 134.501 81.025 135.208C83.1394 140.112 88.008 143.546 93.6776 143.546Z" fill="#6533EF"/>
<path d="M5.94465 189.134H0L0.878845 184.907H17.539L16.6602 189.134H10.7454L7.20214 205.744H2.39938L5.94266 189.134H5.94465Z" fill="#3632C9"/>
<path d="M17.6566 190.514H21.9612L21.2876 193.588C22.0289 192.563 22.854 191.76 23.7627 191.179C24.6714 190.598 25.5642 190.308 26.4411 190.308H26.8954C26.9831 190.308 27.0569 190.318 27.1147 190.338L26.2358 194.535C25.1816 194.535 24.1852 194.711 23.2485 195.06C22.3119 195.41 21.5706 195.925 21.0225 196.606L19.0616 205.744H14.3764L17.6566 190.512V190.514Z" fill="#3632C9"/>
<path d="M29.1334 190.514H33.8185L30.5383 205.746H25.8531L29.1334 190.514ZM30.3928 184.498H35.078L34.1713 188.752H29.4861L30.3928 184.498Z" fill="#3632C9"/>
<path d="M36.9514 190.514H41.0506L40.4946 193.027C41.216 192.16 42.0311 191.485 42.9399 191.004C43.8486 190.522 44.847 190.281 45.9411 190.281C47.0351 190.281 48.0057 190.554 48.7968 191.103C49.588 191.653 50.1978 192.39 50.6263 193.317C51.0547 194.241 51.2699 195.292 51.2699 196.468C51.2699 197.741 51.0447 198.951 50.5964 200.098C50.148 201.244 49.5421 202.267 48.7809 203.164C48.0196 204.06 47.1408 204.764 46.1463 205.275C45.1499 205.786 44.1156 206.042 43.0435 206.042C41.9713 206.042 41.0765 205.796 40.3651 205.305C39.6517 204.813 39.1694 204.142 38.9163 203.295L37.043 212H32.3578L36.9553 190.518L36.9514 190.514ZM42.2802 202.077C42.8063 202.077 43.3145 201.939 43.8027 201.664C44.291 201.388 44.7294 201.022 45.12 200.567C45.5106 200.112 45.8175 199.594 46.0427 199.015C46.2659 198.436 46.3795 197.843 46.3795 197.235C46.3795 196.666 46.2719 196.157 46.0567 195.711C45.8414 195.266 45.5385 194.914 45.1499 194.657C44.7593 194.401 44.291 194.271 43.745 194.271C43.4719 194.271 43.183 194.319 42.8821 194.413C42.5791 194.507 42.2822 194.643 41.9893 194.821C41.6963 194.998 41.4173 195.21 41.1543 195.454C40.8912 195.697 40.6421 195.979 40.4069 196.297L39.7334 199.419C39.831 199.928 39.9924 200.381 40.2156 200.777C40.4408 201.172 40.7318 201.49 41.0945 201.726C41.4552 201.961 41.8518 202.079 42.2802 202.079V202.077Z" fill="#3632C9"/>
<path d="M63.3625 184.907H74.4606C75.2418 184.907 75.8895 185.113 76.4076 185.525C76.9238 185.936 77.3144 186.463 77.5794 187.109C77.8425 187.754 77.974 188.449 77.974 189.192C77.974 189.975 77.8166 190.752 77.5057 191.525C77.1928 192.298 76.7384 192.993 76.1446 193.608C75.5487 194.225 74.8213 194.709 73.9624 195.06C74.8213 195.334 75.4889 195.829 75.9672 196.542C76.4455 197.257 76.6846 198.132 76.6846 199.169C76.6846 200.283 76.4654 201.252 76.025 202.075C75.5866 202.896 74.9847 203.577 74.2235 204.114C73.4622 204.654 72.5933 205.059 71.6168 205.333C70.6403 205.606 69.626 205.744 68.5718 205.744H58.9384L63.3605 184.907H63.3625ZM69.4526 201.665C69.7655 201.665 70.0724 201.598 70.3753 201.46C70.6782 201.324 70.9413 201.132 71.1664 200.889C71.3896 200.645 71.577 200.345 71.7225 199.994C71.8699 199.642 71.9417 199.271 71.9417 198.879C71.9417 198.548 71.8839 198.248 71.7663 197.984C71.6487 197.721 71.4933 197.511 71.298 197.353C71.1027 197.197 70.8675 197.117 70.5945 197.117H65.5586L64.6219 201.665H69.4526ZM70.6244 193.33C70.8974 193.33 71.1704 193.272 71.4434 193.155C71.7165 193.037 71.9696 192.867 72.2047 192.641C72.4399 192.416 72.6252 192.138 72.7607 191.804C72.8962 191.473 72.966 191.071 72.966 190.602C72.966 190.093 72.8484 189.703 72.6152 189.428C72.3801 189.154 72.0772 189.016 71.7085 189.016H67.2864L66.3796 193.33H70.6264H70.6244Z" fill="#3632C9"/>
<path d="M81.868 206.038C80.7739 206.038 79.9409 205.788 79.365 205.289C78.789 204.789 78.5021 204.078 78.5021 203.158C78.5021 202.962 78.512 202.76 78.532 202.554C78.5519 202.349 78.5898 202.139 78.6495 201.923L82.3682 184.32H87.0534L83.6576 200.281C83.6376 200.379 83.6237 200.483 83.6137 200.589C83.6038 200.697 83.5998 200.799 83.5998 200.897C83.5998 201.662 83.9704 202.043 84.7118 202.043C84.927 202.043 85.1761 202.009 85.4591 201.941C85.7421 201.873 86.0111 201.769 86.2642 201.634L86.1167 205.155C85.491 205.429 84.7895 205.644 84.0083 205.8C83.2271 205.956 82.5157 206.036 81.87 206.036L81.868 206.038Z" fill="#3632C9"/>
<path d="M94.5465 206.038C93.004 206.038 91.7445 205.744 90.77 205.157C89.7935 204.57 89.0761 203.789 88.6178 202.814C88.1594 201.841 87.9302 200.765 87.9302 199.59C87.9302 198.416 88.1594 197.181 88.6178 196.063C89.0761 194.944 89.7258 193.952 90.5648 193.085C91.4038 192.218 92.4042 191.533 93.566 191.032C94.7278 190.53 96.0292 190.281 97.474 190.281C99.0364 190.281 100.3 190.57 101.266 191.147C102.233 191.727 102.944 192.502 103.405 193.476C103.863 194.449 104.092 195.534 104.092 196.73C104.092 197.926 103.863 199.111 103.405 200.229C102.946 201.348 102.297 202.345 101.458 203.222C100.619 204.098 99.6183 204.788 98.4564 205.289C97.2946 205.79 95.9913 206.04 94.5485 206.04L94.5465 206.038ZM95.2181 202.077C95.7462 202.077 96.2484 201.959 96.7267 201.722C97.2049 201.484 97.6294 201.146 98.0001 200.711C98.3708 200.273 98.6637 199.762 98.8789 199.173C99.0941 198.584 99.2018 197.956 99.2018 197.293C99.2018 196.666 99.1081 196.131 98.9228 195.683C98.7374 195.236 98.4684 194.89 98.1177 194.643C97.7669 194.397 97.3265 194.271 96.8004 194.271C96.2743 194.271 95.8 194.389 95.3217 194.627C94.8434 194.865 94.4149 195.202 94.0323 195.637C93.6517 196.075 93.3548 196.586 93.1395 197.175C92.9243 197.765 92.8167 198.4 92.8167 199.085C92.8167 199.674 92.9084 200.196 93.0957 200.653C93.281 201.108 93.554 201.46 93.9148 201.708C94.2755 201.955 94.7099 202.077 95.2181 202.077Z" fill="#3632C9"/>
<path d="M111.675 206.038C110.23 206.038 109.03 205.744 108.074 205.157C107.117 204.57 106.406 203.793 105.936 202.828C105.467 201.863 105.232 200.805 105.232 199.648C105.232 198.492 105.467 197.301 105.936 196.193C106.404 195.084 107.067 194.086 107.926 193.201C108.785 192.314 109.816 191.605 111.015 191.075C112.215 190.546 113.548 190.281 115.013 190.281C116.711 190.281 118.062 190.658 119.068 191.411C120.073 192.164 120.742 193.147 121.073 194.361L116.243 195.741C116.067 195.272 115.804 194.91 115.451 194.655C115.101 194.401 114.67 194.273 114.162 194.273C113.654 194.273 113.128 194.391 112.639 194.629C112.151 194.867 111.717 195.204 111.336 195.639C110.956 196.077 110.653 196.588 110.429 197.177C110.204 197.767 110.093 198.412 110.093 199.115C110.093 199.704 110.19 200.221 110.386 200.669C110.581 201.116 110.858 201.462 111.221 201.71C111.581 201.957 111.986 202.079 112.436 202.079C112.787 202.079 113.134 202.015 113.476 201.887C113.817 201.759 114.136 201.58 114.429 201.344C114.722 201.108 114.965 200.845 115.16 200.551L119.435 201.959C118.889 202.742 118.225 203.441 117.444 204.058C116.663 204.676 115.784 205.159 114.81 205.511C113.833 205.862 112.789 206.038 111.677 206.038H111.675Z" fill="#3632C9"/>
<path d="M125.202 184.32H129.858L125.32 205.744H120.665L125.202 184.32ZM127.895 199.133C129.437 198.843 130.637 198.37 131.496 197.715C132.355 197.06 132.783 196.345 132.783 195.574C132.783 195.148 132.662 194.827 132.416 194.603C132.171 194.381 131.864 194.269 131.494 194.269C130.868 194.269 130.22 194.521 129.547 195.022C128.873 195.524 128.257 196.195 127.701 197.036C127.145 197.877 126.739 198.779 126.486 199.744L127.277 195.114C127.823 194.123 128.423 193.265 129.078 192.538C129.732 191.808 130.45 191.251 131.231 190.864C132.012 190.476 132.841 190.28 133.72 190.28C134.794 190.28 135.609 190.586 136.165 191.197C136.721 191.808 137 192.649 137 193.716C137 195.018 136.643 196.207 135.932 197.283C135.218 198.362 134.19 199.259 132.843 199.978L135.45 205.744H130.471L127.895 199.133Z" fill="#3632C9"/>
<defs>
<linearGradient id="paint0_linear_752_4913" x1="27.9497" y1="50.2939" x2="47.1906" y2="50.2939" gradientUnits="userSpaceOnUse">
<stop stop-color="#A9ABF4" stop-opacity="0.8"/>
<stop offset="1" stop-color="#6533EF"/>
</linearGradient>
<linearGradient id="paint1_linear_752_4913" x1="79.8991" y1="50.2939" x2="99.138" y2="50.2939" gradientUnits="userSpaceOnUse">
<stop stop-color="#A9ABF4" stop-opacity="0.8"/>
<stop offset="1" stop-color="#6533EF"/>
</linearGradient>
<linearGradient id="paint2_linear_752_4913" x1="27.9497" y1="87.8786" x2="47.1906" y2="87.8786" gradientUnits="userSpaceOnUse">
<stop stop-color="#A9ABF4" stop-opacity="0.8"/>
<stop offset="1" stop-color="#6533EF"/>
</linearGradient>
<linearGradient id="paint3_linear_752_4913" x1="79.8991" y1="-7.54424" x2="99.138" y2="-7.54424" gradientUnits="userSpaceOnUse">
<stop stop-color="#A9ABF4" stop-opacity="0.8"/>
<stop offset="1" stop-color="#6533EF"/>
</linearGradient>
<linearGradient id="paint4_linear_752_4913" x1="-45.3371" y1="125.567" x2="-45.1379" y2="125.567" gradientUnits="userSpaceOnUse">
<stop stop-color="#A9ABF4" stop-opacity="0.8"/>
<stop offset="1" stop-color="#6533EF"/>
</linearGradient>
<linearGradient id="paint5_linear_752_4913" x1="79.8991" y1="125.567" x2="99.138" y2="125.567" gradientUnits="userSpaceOnUse">
<stop stop-color="#A9ABF4" stop-opacity="0.8"/>
<stop offset="1" stop-color="#6533EF"/>
</linearGradient>
</defs>
</svg>
