<svg width="284" height="74" viewBox="0 0 284 74" fill="none" xmlns="http://www.w3.org/2000/svg">
<path d="M10.6193 73.3346C12.4279 73.3346 13.894 71.8651 13.894 70.0524C13.894 68.2397 12.4279 66.7703 10.6193 66.7703C8.81074 66.7703 7.3446 68.2397 7.3446 70.0524C7.3446 71.8651 8.81074 73.3346 10.6193 73.3346Z" fill="#4C4DDC"/>
<path d="M38.3672 73.3346C40.1758 73.3346 41.6419 71.8651 41.6419 70.0524C41.6419 68.2397 40.1758 66.7703 38.3672 66.7703C36.5587 66.7703 35.0925 68.2397 35.0925 70.0524C35.0925 71.8651 36.5587 73.3346 38.3672 73.3346Z" fill="#4C4DDC"/>
<path d="M42.1272 9.2168H6.81052C3.2879 9.2168 0.432251 12.0789 0.432251 15.6096V63.6593C0.432251 67.1899 3.2879 70.0521 6.81052 70.0521H42.1272C45.6498 70.0521 48.5054 67.1899 48.5054 63.6593V15.6096C48.5054 12.0789 45.6498 9.2168 42.1272 9.2168Z" fill="#4C4DDC"/>
<path d="M30.9923 0H17.9003C12.572 0.252144 13.1889 5.47255 13.248 9.32589H17.7566V5.52572C17.7566 4.7813 18.3641 4.17152 19.1077 4.17152H29.7849C30.5276 4.17152 31.136 4.78044 31.136 5.52572V9.32589H35.6446C35.7037 5.4674 36.3198 0.252144 30.9923 0Z" fill="#4C4DDC"/>
<path d="M14.6811 17.8769C14.9951 17.8769 15.3032 17.9001 15.6061 17.9404C14.8873 17.6291 14.095 17.4558 13.2615 17.4558C9.99368 17.4558 7.34534 20.111 7.34534 23.3855C7.34534 24.2208 7.51818 25.015 7.8288 25.7354C7.78858 25.4318 7.76548 25.123 7.76548 24.8083C7.76548 20.9798 10.8613 17.8769 14.6811 17.8769Z" fill="url(#paint0_linear_752_4914)"/>
<path d="M15.6062 17.9399C17.7069 18.8499 19.1778 20.9451 19.1778 23.385C19.1778 26.6603 16.5286 29.3147 13.2616 29.3147C10.8272 29.3147 8.73674 27.8404 7.82886 25.735C8.28151 29.1243 11.1754 31.7392 14.6812 31.7392C18.5009 31.7392 21.5968 28.6363 21.5968 24.8079C21.5968 21.2941 18.9878 18.3936 15.6062 17.9399Z" fill="#3632C9"/>
<path opacity="0.8" d="M13.2607 29.3149C16.5286 29.3149 19.1769 26.6597 19.1769 23.3853C19.1769 20.9453 17.706 18.8501 15.6053 17.9402C15.3024 17.8999 14.9943 17.8767 14.6803 17.8767C10.8605 17.8767 7.76465 20.9796 7.76465 24.8081C7.76465 25.1228 7.78775 25.4316 7.82797 25.7352C8.73585 27.8407 10.8263 29.3149 13.2607 29.3149Z" fill="#6533EF"/>
<path d="M36.9862 17.8769C37.3002 17.8769 37.6082 17.9001 37.9112 17.9404C37.1924 17.6291 36.4 17.4558 35.5666 17.4558C32.2987 17.4558 29.6504 20.111 29.6504 23.3855C29.6504 24.2208 29.8232 25.015 30.1339 25.7354C30.0936 25.4318 30.0705 25.123 30.0705 24.8083C30.0705 20.9798 33.1664 17.8769 36.9862 17.8769Z" fill="url(#paint1_linear_752_4914)"/>
<path d="M37.9112 17.9399C40.0119 18.8499 41.4828 20.9451 41.4828 23.385C41.4828 26.6603 38.8336 29.3147 35.5666 29.3147C33.1322 29.3147 31.0418 27.8404 30.1339 25.735C30.5866 29.1243 33.4805 31.7392 36.9862 31.7392C40.806 31.7392 43.9019 28.6363 43.9019 24.8079C43.9019 21.2941 41.2929 18.3936 37.9112 17.9399Z" fill="#3632C9"/>
<path opacity="0.8" d="M35.5666 29.3149C38.8345 29.3149 41.4828 26.6597 41.4828 23.3853C41.4828 20.9453 40.0119 18.8501 37.9112 17.9402C37.6083 17.8999 37.3002 17.8767 36.9862 17.8767C33.1664 17.8767 30.0706 20.9796 30.0706 24.8081C30.0706 25.1228 30.0937 25.4316 30.1339 25.7352C31.0418 27.8407 33.1322 29.3149 35.5666 29.3149Z" fill="#6533EF"/>
<path d="M14.6811 34.0156C14.9951 34.0156 15.3032 34.0387 15.6061 34.079C14.8873 33.7677 14.095 33.5945 13.2615 33.5945C9.99368 33.5945 7.34534 36.2497 7.34534 39.5241C7.34534 40.3595 7.51818 41.1536 7.8288 41.8741C7.78858 41.5705 7.76548 41.2617 7.76548 40.947C7.76548 37.1185 10.8613 34.0156 14.6811 34.0156Z" fill="url(#paint2_linear_752_4914)"/>
<path d="M15.6062 34.0786C17.7069 34.9886 19.1778 37.0838 19.1778 39.5237C19.1778 42.799 16.5286 45.4534 13.2616 45.4534C10.8272 45.4534 8.73674 43.9791 7.82886 41.8736C8.28151 45.263 11.1754 47.8779 14.6812 47.8779C18.5009 47.8779 21.5968 44.775 21.5968 40.9465C21.5968 37.4328 18.9878 34.5323 15.6062 34.0786Z" fill="#3632C9"/>
<path opacity="0.8" d="M13.2607 45.4539C16.5286 45.4539 19.1769 42.7986 19.1769 39.5242C19.1769 37.0842 17.706 34.989 15.6053 34.0791C15.3024 34.0388 14.9943 34.0156 14.6803 34.0156C10.8605 34.0156 7.76465 37.1185 7.76465 40.947C7.76465 41.2618 7.78775 41.5705 7.82797 41.8741C8.73585 43.9796 10.8263 45.4539 13.2607 45.4539Z" fill="#6533EF"/>
<path d="M36.9862 34.0156C37.3002 34.0156 37.6082 34.0387 37.9112 34.079C37.1924 33.7677 36.4 33.5945 35.5666 33.5945C32.2987 33.5945 29.6504 36.2497 29.6504 39.5241C29.6504 40.3595 29.8232 41.1536 30.1339 41.8741C30.0936 41.5705 30.0705 41.2617 30.0705 40.947C30.0705 37.1185 33.1664 34.0156 36.9862 34.0156Z" fill="url(#paint3_linear_752_4914)"/>
<path d="M37.9112 34.0786C40.0119 34.9886 41.4828 37.0838 41.4828 39.5237C41.4828 42.799 38.8336 45.4534 35.5666 45.4534C33.1322 45.4534 31.0418 43.9791 30.1339 41.8736C30.5866 45.263 33.4805 47.8779 36.9862 47.8779C40.806 47.8779 43.9019 44.775 43.9019 40.9465C43.9019 37.4328 41.2929 34.5323 37.9112 34.0786Z" fill="#3632C9"/>
<path opacity="0.8" d="M35.5666 45.4539C38.8345 45.4539 41.4828 42.7986 41.4828 39.5242C41.4828 37.0842 40.0119 34.989 37.9112 34.0791C37.6083 34.0388 37.3002 34.0156 36.9862 34.0156C33.1664 34.0156 30.0706 37.1185 30.0706 40.947C30.0706 41.2618 30.0937 41.5705 30.1339 41.8741C31.0418 43.9796 33.1322 45.4539 35.5666 45.4539Z" fill="#6533EF"/>
<path d="M14.6811 50.1977C14.9951 50.1977 15.3032 50.2209 15.6061 50.2612C14.8873 49.9499 14.095 49.7766 13.2615 49.7766C9.99368 49.7766 7.34534 52.4318 7.34534 55.7063C7.34534 56.5416 7.51818 57.3358 7.8288 58.0562C7.78858 57.7526 7.76548 57.4438 7.76548 57.1291C7.76548 53.3006 10.8613 50.1977 14.6811 50.1977Z" fill="url(#paint4_linear_752_4914)"/>
<path d="M15.6062 50.2605C17.7069 51.1704 19.1778 53.2656 19.1778 55.7056C19.1778 58.9809 16.5286 61.6353 13.2616 61.6353C10.8272 61.6353 8.73674 60.161 7.82886 58.0555C8.28151 61.4449 11.1754 64.0598 14.6812 64.0598C18.5009 64.0598 21.5968 60.9569 21.5968 57.1284C21.5968 53.6147 18.9878 50.7142 15.6062 50.2605Z" fill="#3632C9"/>
<path opacity="0.8" d="M13.2607 61.6357C16.5286 61.6357 19.1769 58.9805 19.1769 55.7061C19.1769 53.2661 17.706 51.1709 15.6053 50.261C15.3024 50.2207 14.9943 50.1975 14.6803 50.1975C10.8605 50.1975 7.76465 53.3004 7.76465 57.1289C7.76465 57.4436 7.78775 57.7524 7.82797 58.056C8.73585 60.1615 10.8263 61.6357 13.2607 61.6357Z" fill="#6533EF"/>
<path d="M36.9862 50.1977C37.3002 50.1977 37.6082 50.2209 37.9112 50.2612C37.1924 49.9499 36.4 49.7766 35.5666 49.7766C32.2987 49.7766 29.6504 52.4318 29.6504 55.7063C29.6504 56.5416 29.8232 57.3358 30.1339 58.0562C30.0936 57.7526 30.0705 57.4438 30.0705 57.1291C30.0705 53.3006 33.1664 50.1977 36.9862 50.1977Z" fill="url(#paint5_linear_752_4914)"/>
<path d="M37.9112 50.2605C40.0119 51.1704 41.4828 53.2656 41.4828 55.7056C41.4828 58.9809 38.8336 61.6353 35.5666 61.6353C33.1322 61.6353 31.0418 60.161 30.1339 58.0555C30.5866 61.4449 33.4805 64.0598 36.9862 64.0598C40.806 64.0598 43.9019 60.9569 43.9019 57.1284C43.9019 53.6147 41.2929 50.7142 37.9112 50.2605Z" fill="#3632C9"/>
<path opacity="0.8" d="M35.5666 61.6357C38.8345 61.6357 41.4828 58.9805 41.4828 55.7061C41.4828 53.2661 40.0119 51.1709 37.9112 50.261C37.6083 50.2207 37.3002 50.1975 36.9862 50.1975C33.1664 50.1975 30.0706 53.3004 30.0706 57.1289C30.0706 57.4436 30.0937 57.7524 30.1339 58.056C31.0418 60.1615 33.1322 61.6357 35.5666 61.6357Z" fill="#6533EF"/>
<path d="M87.2773 23.1239H78.3579L79.6765 16.7825H104.674L103.355 23.1239H94.4804L89.1641 48.046H81.958L87.2743 23.1239H87.2773Z" fill="#3632C9"/>
<path d="M104.85 25.1954H111.309L110.298 29.8076C111.41 28.2702 112.648 27.0655 114.012 26.1934C115.375 25.3213 116.715 24.8867 118.03 24.8867H118.712C118.844 24.8867 118.954 24.9017 119.041 24.9317L117.722 31.2281C116.141 31.2281 114.646 31.4919 113.24 32.0163C111.835 32.5408 110.723 33.314 109.9 34.3359L106.958 48.0467H99.9285L104.85 25.1924V25.1954Z" fill="#3632C9"/>
<path d="M122.07 25.1946H129.1L124.178 48.0489H117.148L122.07 25.1946ZM123.96 16.168H130.989L129.629 22.5514H122.599L123.96 16.168Z" fill="#3632C9"/>
<path d="M133.8 25.1951H139.951L139.117 28.9652C140.199 27.6646 141.422 26.6516 142.785 25.9294C144.149 25.2071 145.647 24.8445 147.288 24.8445C148.93 24.8445 150.386 25.2551 151.573 26.0792C152.76 26.9033 153.675 28.0092 154.318 29.3998C154.961 30.7873 155.284 32.3637 155.284 34.1289C155.284 36.0379 154.946 37.854 154.273 39.5742C153.601 41.2944 152.692 42.8288 151.549 44.1744C150.407 45.5201 149.089 46.5749 147.596 47.3421C146.101 48.1093 144.55 48.4929 142.941 48.4929C141.332 48.4929 139.99 48.1243 138.922 47.3871C137.852 46.6499 137.128 45.6429 136.748 44.3722L133.938 57.4327H126.908L133.806 25.2011L133.8 25.1951ZM141.796 42.5441C142.585 42.5441 143.348 42.3373 144.08 41.9238C144.813 41.5102 145.471 40.9618 146.057 40.2785C146.643 39.5952 147.103 38.819 147.441 37.9499C147.776 37.0808 147.946 36.1907 147.946 35.2797C147.946 34.4255 147.785 33.6613 147.462 32.993C147.139 32.3247 146.684 31.7973 146.101 31.4107C145.515 31.0271 144.813 30.8323 143.993 30.8323C143.584 30.8323 143.15 30.9042 142.699 31.0451C142.244 31.1859 141.799 31.3897 141.359 31.6564C140.92 31.9232 140.501 32.2408 140.106 32.6064C139.712 32.9721 139.338 33.3946 138.985 33.8711L137.974 38.5553C138.121 39.3195 138.363 39.9998 138.698 40.5931C139.036 41.1865 139.472 41.663 140.017 42.0167C140.558 42.3703 141.153 42.5471 141.796 42.5471V42.5441Z" fill="#3632C9"/>
<path d="M173.428 16.7825H190.08C191.252 16.7825 192.223 17.0911 193.001 17.7085C193.775 18.3259 194.361 19.117 194.759 20.085C195.154 21.053 195.351 22.0959 195.351 23.2108C195.351 24.3856 195.115 25.5514 194.648 26.7112C194.179 27.871 193.497 28.9139 192.606 29.8369C191.712 30.763 190.621 31.4882 189.332 32.0157C190.621 32.4262 191.622 33.1695 192.34 34.2394C193.058 35.3122 193.416 36.6249 193.416 38.1803C193.416 39.8525 193.088 41.306 192.427 42.5407C191.769 43.7725 190.866 44.7944 189.724 45.6006C188.582 46.4097 187.278 47.0181 185.813 47.4287C184.348 47.8393 182.826 48.046 181.244 48.046H166.79L173.425 16.7825H173.428ZM182.565 41.9264C183.035 41.9264 183.495 41.8245 183.95 41.6177C184.404 41.4139 184.799 41.1262 185.137 40.7606C185.472 40.395 185.753 39.9454 185.971 39.418C186.192 38.8905 186.3 38.3331 186.3 37.7457C186.3 37.2482 186.213 36.7987 186.037 36.4031C185.861 36.0075 185.627 35.6928 185.334 35.4561C185.041 35.2223 184.688 35.1025 184.279 35.1025H176.723L175.318 41.9264H182.565ZM184.324 29.4204C184.733 29.4204 185.143 29.3334 185.553 29.1566C185.962 28.9798 186.342 28.7251 186.695 28.3864C187.048 28.0478 187.326 27.6312 187.529 27.1307C187.732 26.6332 187.837 26.0309 187.837 25.3266C187.837 24.5624 187.661 23.978 187.311 23.5644C186.958 23.1539 186.503 22.9471 185.95 22.9471H179.315L177.955 29.4204H184.327H184.324Z" fill="#3632C9"/>
<path d="M201.194 48.4868C199.552 48.4868 198.302 48.1122 197.438 47.363C196.574 46.6138 196.143 45.5468 196.143 44.1653C196.143 43.8716 196.158 43.5689 196.188 43.2602C196.218 42.9515 196.275 42.6369 196.365 42.3132L201.944 15.9016H208.974L203.879 39.8498C203.849 39.9966 203.828 40.1525 203.813 40.3113C203.798 40.4731 203.792 40.6259 203.792 40.7728C203.792 41.9206 204.348 42.493 205.46 42.493C205.783 42.493 206.157 42.4421 206.582 42.3402C207.006 42.2383 207.41 42.0824 207.79 41.8787L207.568 47.1622C206.63 47.5727 205.577 47.8964 204.405 48.1302C203.233 48.3639 202.165 48.4838 201.197 48.4838L201.194 48.4868Z" fill="#3632C9"/>
<path d="M220.217 48.487C217.902 48.487 216.012 48.0464 214.55 47.1653C213.085 46.2842 212.009 45.1125 211.321 43.65C210.633 42.1905 210.289 40.5752 210.289 38.813C210.289 37.0508 210.633 35.1987 211.321 33.5205C212.009 31.8422 212.984 30.3528 214.242 29.0521C215.501 27.7515 217.002 26.7235 218.745 25.9713C220.489 25.2191 222.441 24.8445 224.609 24.8445C226.953 24.8445 228.849 25.279 230.299 26.1451C231.749 27.0142 232.817 28.177 233.507 29.6395C234.195 31.099 234.539 32.7263 234.539 34.5215C234.539 36.3166 234.195 38.0937 233.507 39.772C232.82 41.4503 231.845 42.9457 230.586 44.2613C229.327 45.577 227.826 46.6109 226.083 47.3631C224.34 48.1154 222.384 48.4899 220.22 48.4899L220.217 48.487ZM221.224 42.5441C222.017 42.5441 222.77 42.3673 223.488 42.0107C224.205 41.654 224.842 41.1476 225.398 40.4943C225.954 39.8379 226.394 39.0707 226.717 38.1866C227.04 37.3025 227.201 36.3615 227.201 35.3666C227.201 34.4256 227.061 33.6224 226.783 32.9511C226.505 32.2798 226.101 31.7613 225.575 31.3897C225.048 31.0211 224.388 30.8323 223.598 30.8323C222.809 30.8323 222.097 31.0091 221.38 31.3657C220.662 31.7223 220.019 32.2288 219.445 32.8821C218.874 33.5385 218.428 34.3057 218.106 35.1897C217.783 36.0738 217.621 37.0268 217.621 38.0548C217.621 38.9389 217.759 39.721 218.04 40.4073C218.318 41.0906 218.727 41.6181 219.269 41.9897C219.81 42.3613 220.462 42.5441 221.224 42.5441Z" fill="#3632C9"/>
<path d="M245.916 48.487C243.748 48.487 241.948 48.0464 240.513 47.1653C239.078 46.2842 238.01 45.1184 237.305 43.6709C236.602 42.2235 236.249 40.6351 236.249 38.8999C236.249 37.1647 236.602 35.3786 237.305 33.7153C238.007 32.052 239.003 30.5536 240.292 29.2259C241.581 27.8953 243.126 26.8314 244.926 26.0373C246.727 25.2431 248.727 24.8445 250.925 24.8445C253.472 24.8445 255.499 25.4109 257.009 26.5407C258.516 27.6706 259.521 29.145 260.017 30.9671L252.769 33.038C252.506 32.3337 252.112 31.7913 251.582 31.4077C251.056 31.0271 250.41 30.8353 249.648 30.8353C248.885 30.8353 248.096 31.0121 247.363 31.3687C246.631 31.7253 245.979 32.2318 245.408 32.8851C244.837 33.5415 244.382 34.3087 244.047 35.1927C243.71 36.0768 243.542 37.0448 243.542 38.0997C243.542 38.9838 243.689 39.76 243.982 40.4313C244.275 41.1026 244.69 41.6211 245.234 41.9927C245.776 42.3643 246.383 42.5471 247.058 42.5471C247.585 42.5471 248.105 42.4512 248.619 42.2594C249.131 42.0676 249.609 41.7979 250.049 41.4443C250.488 41.0906 250.853 40.695 251.146 40.2545L257.56 42.3673C256.74 43.5421 255.745 44.591 254.573 45.517C253.4 46.4431 252.082 47.1683 250.62 47.6958C249.154 48.2232 247.588 48.487 245.919 48.487H245.916Z" fill="#3632C9"/>
<path d="M266.213 15.9016H273.198L266.389 48.0462H259.404L266.213 15.9016ZM270.252 38.1265C272.567 37.692 274.367 36.9817 275.656 35.9988C276.944 35.0158 277.587 33.9429 277.587 32.7861C277.587 32.1477 277.405 31.6653 277.037 31.3296C276.669 30.9969 276.209 30.8291 275.653 30.8291C274.714 30.8291 273.742 31.2067 272.731 31.9589C271.721 32.7112 270.797 33.7181 269.962 34.9798C269.128 36.2415 268.518 37.5961 268.138 39.0436L269.326 32.0968C270.145 30.6103 271.045 29.3217 272.029 28.2308C273.009 27.1369 274.086 26.3008 275.258 25.7194C276.43 25.138 277.674 24.8443 278.992 24.8443C280.604 24.8443 281.827 25.3029 282.661 26.2199C283.496 27.137 283.914 28.3986 283.914 29.999C283.914 31.953 283.379 33.7361 282.311 35.3514C281.241 36.9697 279.698 38.3153 277.677 39.3942L281.588 48.0462H274.119L270.252 38.1265Z" fill="#3632C9"/>
<defs>
<linearGradient id="paint0_linear_752_4914" x1="7.34448" y1="21.5956" x2="15.6061" y2="21.5956" gradientUnits="userSpaceOnUse">
<stop stop-color="#A9ABF4" stop-opacity="0.8"/>
<stop offset="1" stop-color="#6533EF"/>
</linearGradient>
<linearGradient id="paint1_linear_752_4914" x1="29.6504" y1="21.5956" x2="37.9112" y2="21.5956" gradientUnits="userSpaceOnUse">
<stop stop-color="#A9ABF4" stop-opacity="0.8"/>
<stop offset="1" stop-color="#6533EF"/>
</linearGradient>
<linearGradient id="paint2_linear_752_4914" x1="7.34448" y1="37.7334" x2="15.6061" y2="37.7334" gradientUnits="userSpaceOnUse">
<stop stop-color="#A9ABF4" stop-opacity="0.8"/>
<stop offset="1" stop-color="#6533EF"/>
</linearGradient>
<linearGradient id="paint3_linear_752_4914" x1="29.6504" y1="-3.23909" x2="37.9112" y2="-3.23909" gradientUnits="userSpaceOnUse">
<stop stop-color="#A9ABF4" stop-opacity="0.8"/>
<stop offset="1" stop-color="#6533EF"/>
</linearGradient>
<linearGradient id="paint4_linear_752_4914" x1="-24.1233" y1="53.9164" x2="-24.0377" y2="53.9164" gradientUnits="userSpaceOnUse">
<stop stop-color="#A9ABF4" stop-opacity="0.8"/>
<stop offset="1" stop-color="#6533EF"/>
</linearGradient>
<linearGradient id="paint5_linear_752_4914" x1="29.6504" y1="53.9164" x2="37.9112" y2="53.9164" gradientUnits="userSpaceOnUse">
<stop stop-color="#A9ABF4" stop-opacity="0.8"/>
<stop offset="1" stop-color="#6533EF"/>
</linearGradient>
</defs>
</svg>
