<svg width="125" height="189" viewBox="0 0 125 189" fill="none" xmlns="http://www.w3.org/2000/svg">
<path d="M26.3164 189C30.9878 189 34.7748 185.213 34.7748 180.542C34.7748 175.87 30.9878 172.083 26.3164 172.083C21.645 172.083 17.8581 175.87 17.8581 180.542C17.8581 185.213 21.645 189 26.3164 189Z" fill="#4C4DDC"/>
<path d="M97.9903 189C102.662 189 106.449 185.213 106.449 180.542C106.449 175.87 102.662 172.083 97.9903 172.083C93.3188 172.083 89.5319 175.87 89.5319 180.542C89.5319 185.213 93.3188 189 97.9903 189Z" fill="#4C4DDC"/>
<path d="M107.701 23.7551H16.4762C7.37664 23.7551 0 31.1318 0 40.2313V164.065C0 173.165 7.37664 180.542 16.4762 180.542H107.701C116.8 180.542 124.177 173.165 124.177 164.065V40.2313C124.177 31.1318 116.8 23.7551 107.701 23.7551Z" fill="#4C4DDC"/>
<path d="M78.9421 0H45.1247C31.3608 0.648319 32.9541 14.1049 33.1069 24.0357H44.7535V14.2417C44.7535 12.3216 46.3237 10.7514 48.2438 10.7514H75.8248C77.7449 10.7514 79.3151 12.3216 79.3151 14.2417V24.0357H90.9618C91.1145 14.0925 92.706 0.650095 78.9439 0H78.9421Z" fill="#4C4DDC"/>
<path d="M36.8068 46.0731C37.6167 46.0731 38.4142 46.1317 39.1958 46.2365C37.3378 45.4337 35.2916 44.9861 33.1389 44.9861C24.6983 44.9861 17.8563 51.8281 17.8563 60.2686C17.8563 62.4214 18.3039 64.4676 19.1068 66.3255C19.002 65.544 18.9434 64.7465 18.9434 63.9365C18.9434 54.0714 26.9417 46.0731 36.8068 46.0731Z" fill="url(#paint0_linear_752_4912)"/>
<path d="M39.1957 46.2366C44.622 48.583 48.4214 53.9809 48.4214 60.2687C48.4214 68.7093 41.5794 75.5512 33.1388 75.5512C26.851 75.5512 21.4513 71.7519 19.1067 66.3256C20.2754 75.061 27.7515 81.8 36.8067 81.8C46.6718 81.8 54.6701 73.8017 54.6701 63.9366C54.6701 54.8814 47.9311 47.4053 39.1957 46.2366Z" fill="#3632C9"/>
<path opacity="0.8" d="M33.1388 75.553C41.5794 75.553 48.4214 68.711 48.4214 60.2705C48.4214 53.9827 44.6221 48.583 39.1957 46.2384C38.4142 46.1336 37.6167 46.075 36.8067 46.075C26.9416 46.075 18.9433 54.0733 18.9433 63.9384C18.9433 64.7483 19.0019 65.5458 19.1067 66.3274C21.4531 71.7537 26.851 75.553 33.1388 75.553Z" fill="#6533EF"/>
<path d="M94.4254 46.0731C95.2353 46.0731 96.0329 46.1317 96.8144 46.2365C94.9565 45.4337 92.9103 44.9861 90.7575 44.9861C82.3169 44.9861 75.4749 51.8281 75.4749 60.2686C75.4749 62.4214 75.9225 64.4676 76.7254 66.3255C76.6206 65.544 76.562 64.7465 76.562 63.9365C76.562 54.0714 84.5603 46.0731 94.4254 46.0731Z" fill="url(#paint1_linear_752_4912)"/>
<path d="M96.8143 46.2366C102.241 48.583 106.04 53.9809 106.04 60.2687C106.04 68.7093 99.198 75.5512 90.7574 75.5512C84.4696 75.5512 79.0699 71.7519 76.7253 66.3256C77.8941 75.061 85.3702 81.8 94.4253 81.8C104.29 81.8 112.289 73.8017 112.289 63.9366C112.289 54.8814 105.55 47.4053 96.8143 46.2366Z" fill="#3632C9"/>
<path opacity="0.8" d="M90.7574 75.553C99.198 75.553 106.04 68.711 106.04 60.2705C106.04 53.9827 102.241 48.583 96.8143 46.2384C96.0328 46.1336 95.2353 46.075 94.4253 46.075C84.5602 46.075 76.5619 54.0733 76.5619 63.9384C76.5619 64.7483 76.6205 65.5458 76.7253 66.3274C79.0717 71.7537 84.4696 75.553 90.7574 75.553Z" fill="#6533EF"/>
<path d="M36.8067 87.6649C37.6166 87.6649 38.4142 87.7235 39.1957 87.8283C37.3378 87.0255 35.2916 86.5779 33.1388 86.5779C24.6982 86.5779 17.8562 93.4199 17.8562 101.86C17.8562 104.013 18.3038 106.059 19.1067 107.917C19.0019 107.136 18.9433 106.338 18.9433 105.528C18.9433 95.6632 26.9416 87.6649 36.8067 87.6649Z" fill="url(#paint2_linear_752_4912)"/>
<path d="M39.1956 87.8284C44.6219 90.1747 48.4213 95.5727 48.4213 101.86C48.4213 110.301 41.5793 117.143 33.1387 117.143C26.8509 117.143 21.4512 113.344 19.1066 107.917C20.2753 116.653 27.7514 123.392 36.8066 123.392C46.6717 123.392 54.67 115.393 54.67 105.528C54.67 96.4732 47.931 88.9971 39.1956 87.8284Z" fill="#3632C9"/>
<path opacity="0.8" d="M33.1387 117.145C41.5793 117.145 48.4213 110.303 48.4213 101.862C48.4213 95.5745 44.622 90.1748 39.1956 87.8302C38.4141 87.7254 37.6166 87.6667 36.8066 87.6667C26.9415 87.6667 18.9432 95.665 18.9432 105.53C18.9432 106.34 19.0018 107.138 19.1066 107.919C21.453 113.345 26.8509 117.145 33.1387 117.145Z" fill="#6533EF"/>
<path d="M94.4254 87.6649C95.2353 87.6649 96.0329 87.7235 96.8144 87.8283C94.9565 87.0255 92.9103 86.5779 90.7575 86.5779C82.3169 86.5779 75.4749 93.4199 75.4749 101.86C75.4749 104.013 75.9225 106.059 76.7254 107.917C76.6206 107.136 76.562 106.338 76.562 105.528C76.562 95.6632 84.5603 87.6649 94.4254 87.6649Z" fill="url(#paint3_linear_752_4912)"/>
<path d="M96.8143 87.8284C102.241 90.1747 106.04 95.5727 106.04 101.86C106.04 110.301 99.198 117.143 90.7574 117.143C84.4696 117.143 79.0699 113.344 76.7253 107.917C77.8941 116.653 85.3702 123.392 94.4253 123.392C104.29 123.392 112.289 115.393 112.289 105.528C112.289 96.4732 105.55 88.9971 96.8143 87.8284Z" fill="#3632C9"/>
<path opacity="0.8" d="M90.7574 117.145C99.198 117.145 106.04 110.303 106.04 101.862C106.04 95.5745 102.241 90.1748 96.8143 87.8302C96.0328 87.7254 95.2353 87.6667 94.4253 87.6667C84.5602 87.6667 76.5619 95.665 76.5619 105.53C76.5619 106.34 76.6205 107.138 76.7253 107.919C79.0717 113.345 84.4696 117.145 90.7574 117.145Z" fill="#6533EF"/>
<path d="M36.8067 129.37C37.6166 129.37 38.4142 129.429 39.1957 129.534C37.3378 128.731 35.2916 128.283 33.1388 128.283C24.6982 128.283 17.8562 135.125 17.8562 143.566C17.8562 145.719 18.3038 147.765 19.1067 149.623C19.0019 148.841 18.9433 148.044 18.9433 147.234C18.9433 137.369 26.9416 129.37 36.8067 129.37Z" fill="url(#paint4_linear_752_4912)"/>
<path d="M39.1956 129.534C44.6219 131.88 48.4213 137.278 48.4213 143.566C48.4213 152.006 41.5793 158.848 33.1387 158.848C26.8509 158.848 21.4512 155.049 19.1066 149.623C20.2753 158.358 27.7514 165.097 36.8066 165.097C46.6717 165.097 54.67 157.099 54.67 147.234C54.67 138.179 47.931 130.702 39.1956 129.534Z" fill="#3632C9"/>
<path opacity="0.8" d="M33.1387 158.848C41.5793 158.848 48.4213 152.006 48.4213 143.566C48.4213 137.278 44.622 131.878 39.1956 129.534C38.4141 129.429 37.6166 129.37 36.8066 129.37C26.9415 129.37 18.9432 137.369 18.9432 147.234C18.9432 148.044 19.0018 148.841 19.1066 149.623C21.453 155.049 26.8509 158.848 33.1387 158.848Z" fill="#6533EF"/>
<path d="M94.4254 129.37C95.2353 129.37 96.0329 129.429 96.8144 129.534C94.9565 128.731 92.9103 128.283 90.7575 128.283C82.3169 128.283 75.4749 135.125 75.4749 143.566C75.4749 145.719 75.9225 147.765 76.7254 149.623C76.6206 148.841 76.562 148.044 76.562 147.234C76.562 137.369 84.5603 129.37 94.4254 129.37Z" fill="url(#paint5_linear_752_4912)"/>
<path d="M96.8143 129.534C102.241 131.88 106.04 137.278 106.04 143.566C106.04 152.006 99.198 158.848 90.7574 158.848C84.4696 158.848 79.0699 155.049 76.7253 149.623C77.8941 158.358 85.3702 165.097 94.4253 165.097C104.29 165.097 112.289 157.099 112.289 147.234C112.289 138.179 105.55 130.702 96.8143 129.534Z" fill="#3632C9"/>
<path opacity="0.8" d="M90.7574 158.848C99.198 158.848 106.04 152.006 106.04 143.566C106.04 137.278 102.241 131.878 96.8143 129.534C96.0328 129.429 95.2353 129.37 94.4253 129.37C84.5602 129.37 76.5619 137.369 76.5619 147.234C76.5619 148.044 76.6205 148.841 76.7253 149.623C79.0717 155.049 84.4696 158.848 90.7574 158.848Z" fill="#6533EF"/>
<defs>
<linearGradient id="paint0_linear_752_4912" x1="17.8563" y1="55.6558" x2="39.1958" y2="55.6558" gradientUnits="userSpaceOnUse">
<stop stop-color="#A9ABF4" stop-opacity="0.8"/>
<stop offset="1" stop-color="#6533EF"/>
</linearGradient>
<linearGradient id="paint1_linear_752_4912" x1="75.4749" y1="55.6558" x2="96.8144" y2="55.6558" gradientUnits="userSpaceOnUse">
<stop stop-color="#A9ABF4" stop-opacity="0.8"/>
<stop offset="1" stop-color="#6533EF"/>
</linearGradient>
<linearGradient id="paint2_linear_752_4912" x1="17.8562" y1="97.2494" x2="39.1957" y2="97.2494" gradientUnits="userSpaceOnUse">
<stop stop-color="#A9ABF4" stop-opacity="0.8"/>
<stop offset="1" stop-color="#6533EF"/>
</linearGradient>
<linearGradient id="paint3_linear_752_4912" x1="75.4749" y1="-6.36611" x2="96.8144" y2="-6.36611" gradientUnits="userSpaceOnUse">
<stop stop-color="#A9ABF4" stop-opacity="0.8"/>
<stop offset="1" stop-color="#6533EF"/>
</linearGradient>
<linearGradient id="paint4_linear_752_4912" x1="-38.7766" y1="138.953" x2="-38.599" y2="138.953" gradientUnits="userSpaceOnUse">
<stop stop-color="#A9ABF4" stop-opacity="0.8"/>
<stop offset="1" stop-color="#6533EF"/>
</linearGradient>
<linearGradient id="paint5_linear_752_4912" x1="75.4749" y1="138.953" x2="96.8144" y2="138.953" gradientUnits="userSpaceOnUse">
<stop stop-color="#A9ABF4" stop-opacity="0.8"/>
<stop offset="1" stop-color="#6533EF"/>
</linearGradient>
</defs>
</svg>
