<svg width="206" height="42" viewBox="0 0 206 42" fill="none" xmlns="http://www.w3.org/2000/svg">
<path d="M8.91941 7.22227H0L1.31863 0.880859H26.3157L24.9971 7.22227H16.1225L10.8062 32.1444H3.60006L8.91643 7.22227H8.91941Z" fill="#3632C9"/>
<path d="M26.4922 9.2938H32.9508L31.9402 13.906C33.0525 12.3686 34.2904 11.1638 35.6538 10.2917C37.0173 9.41965 38.3569 8.98511 39.6725 8.98511H40.3543C40.4858 8.98511 40.5965 9.0001 40.6832 9.03007L39.3645 15.3265C37.7828 15.3265 36.2877 15.5902 34.8824 16.1147C33.4771 16.6392 32.3648 17.4124 31.5425 18.4343L28.6002 32.1451H21.5706L26.4922 9.2908V9.2938Z" fill="#3632C9"/>
<path d="M43.7121 9.29301H50.7418L45.8201 32.1473H38.7904L43.7121 9.29301ZM45.6018 0.266357H52.6315L51.271 6.64975H44.2413L45.6018 0.266357Z" fill="#3632C9"/>
<path d="M55.4423 9.29352H61.5929L60.7587 13.0636C61.8411 11.7629 63.064 10.75 64.4275 10.0277C65.791 9.30549 67.289 8.94287 68.9306 8.94287C70.5721 8.94287 72.0283 9.35344 73.2154 10.1776C74.4024 11.0017 75.3174 12.1076 75.9603 13.4981C76.6031 14.8857 76.9261 16.4621 76.9261 18.2273C76.9261 20.1363 76.5882 21.9524 75.9154 23.6726C75.2427 25.3928 74.3337 26.9272 73.1914 28.2728C72.0492 29.6184 70.7306 30.6733 69.2386 31.4405C67.7435 32.2077 66.1917 32.5913 64.583 32.5913C62.9743 32.5913 61.6318 32.2227 60.5643 31.4855C59.4939 30.7483 58.7703 29.7413 58.3905 28.4706L55.5799 41.5311H48.5502L55.4483 9.2995L55.4423 9.29352ZM63.4378 26.6425C64.2272 26.6425 64.9896 26.4357 65.7222 26.0222C66.4548 25.6086 67.1126 25.0602 67.6987 24.3769C68.2847 23.6936 68.7452 22.9174 69.0831 22.0483C69.418 21.1792 69.5884 20.2891 69.5884 19.378C69.5884 18.5239 69.4269 17.7597 69.104 17.0914C68.7811 16.4231 68.3266 15.8957 67.7435 15.5091C67.1575 15.1255 66.4548 14.9307 65.6355 14.9307C65.2259 14.9307 64.7923 15.0026 64.3408 15.1434C63.8863 15.2843 63.4408 15.4881 63.0012 15.7548C62.5617 16.0215 62.1431 16.3392 61.7484 16.7048C61.3537 17.0704 60.98 17.493 60.6271 17.9695L59.6165 22.6537C59.763 23.4179 60.0052 24.0981 60.3401 24.6915C60.6779 25.2849 61.1145 25.7614 61.6587 26.1151C62.1999 26.4687 62.7949 26.6455 63.4378 26.6455V26.6425Z" fill="#3632C9"/>
<path d="M95.0699 0.880859H111.722C112.894 0.880859 113.866 1.18953 114.643 1.80689C115.417 2.42425 116.003 3.21542 116.401 4.18342C116.796 5.15142 116.993 6.19433 116.993 7.30917C116.993 8.48396 116.757 9.64976 116.29 10.8096C115.821 11.9694 115.139 13.0123 114.248 13.9353C113.354 14.8614 112.263 15.5866 110.974 16.114C112.263 16.5246 113.265 17.2679 113.982 18.3377C114.7 19.4106 115.059 20.7233 115.059 22.2787C115.059 23.9509 114.73 25.4044 114.069 26.6391C113.411 27.8708 112.508 28.8928 111.366 29.699C110.224 30.5081 108.92 31.1165 107.455 31.5271C105.99 31.9376 104.468 32.1444 102.886 32.1444H88.4319L95.0669 0.880859H95.0699ZM104.208 26.0248C104.677 26.0248 105.137 25.9229 105.592 25.7161C106.046 25.5123 106.441 25.2246 106.779 24.859C107.114 24.4934 107.395 24.0438 107.613 23.5164C107.835 22.9889 107.942 22.4315 107.942 21.8441C107.942 21.3466 107.855 20.8971 107.679 20.5015C107.503 20.1059 107.269 19.7912 106.976 19.5545C106.683 19.3207 106.331 19.2009 105.921 19.2009H98.3649L96.9596 26.0248H104.208ZM105.966 13.5187C106.375 13.5187 106.785 13.4318 107.195 13.255C107.604 13.0782 107.984 12.8235 108.337 12.4848C108.69 12.1462 108.968 11.7296 109.171 11.2291C109.374 10.7316 109.479 10.1293 109.479 9.425C109.479 8.66079 109.303 8.0764 108.953 7.66282C108.6 7.25225 108.146 7.04547 107.592 7.04547H100.957L99.5969 13.5187H105.969H105.966Z" fill="#3632C9"/>
<path d="M122.836 32.5852C121.194 32.5852 119.944 32.2106 119.08 31.4614C118.216 30.7121 117.785 29.6452 117.785 28.2637C117.785 27.97 117.8 27.6673 117.83 27.3586C117.86 27.0499 117.917 26.7352 118.007 26.4116L123.586 0H130.616L125.521 23.9481C125.491 24.095 125.47 24.2508 125.455 24.4097C125.44 24.5715 125.434 24.7243 125.434 24.8712C125.434 26.019 125.99 26.5914 127.103 26.5914C127.425 26.5914 127.799 26.5405 128.224 26.4386C128.648 26.3367 129.052 26.1808 129.432 25.977L129.211 31.2606C128.272 31.6711 127.219 31.9948 126.047 32.2286C124.875 32.4623 123.807 32.5822 122.839 32.5822L122.836 32.5852Z" fill="#3632C9"/>
<path d="M141.859 32.5854C139.544 32.5854 137.655 32.1448 136.192 31.2637C134.727 30.3826 133.651 29.2109 132.963 27.7484C132.275 26.2889 131.932 24.6736 131.932 22.9114C131.932 21.1492 132.275 19.2971 132.963 17.6189C133.651 15.9406 134.626 14.4512 135.884 13.1505C137.143 11.8499 138.644 10.8219 140.387 10.0697C142.131 9.31749 144.083 8.94287 146.251 8.94287C148.595 8.94287 150.491 9.37743 151.941 10.2435C153.391 11.1126 154.459 12.2754 155.15 13.7379C155.837 15.1974 156.181 16.8247 156.181 18.6198C156.181 20.415 155.837 22.1921 155.15 23.8704C154.462 25.5486 153.487 27.0441 152.228 28.3597C150.969 29.6754 149.468 30.7093 147.725 31.4615C145.982 32.2137 144.026 32.5883 141.862 32.5883L141.859 32.5854ZM142.866 26.6425C143.659 26.6425 144.412 26.4657 145.13 26.109C145.847 25.7524 146.484 25.246 147.04 24.5926C147.597 23.9363 148.036 23.1691 148.359 22.285C148.682 21.4009 148.843 20.4599 148.843 19.465C148.843 18.5239 148.703 17.7208 148.425 17.0495C148.147 16.3782 147.743 15.8597 147.217 15.4881C146.691 15.1195 146.03 14.9307 145.24 14.9307C144.451 14.9307 143.739 15.1075 143.022 15.4641C142.304 15.8207 141.661 16.3272 141.087 16.9805C140.516 17.6369 140.071 18.404 139.748 19.2881C139.425 20.1722 139.263 21.1252 139.263 22.1532C139.263 23.0373 139.401 23.8194 139.682 24.5057C139.96 25.189 140.37 25.7165 140.911 26.0881C141.452 26.4597 142.104 26.6425 142.866 26.6425Z" fill="#3632C9"/>
<path d="M167.558 32.5854C165.39 32.5854 163.59 32.1448 162.155 31.2637C160.72 30.3826 159.653 29.2168 158.947 27.7693C158.244 26.3218 157.891 24.7335 157.891 22.9983C157.891 21.2631 158.244 19.477 158.947 17.8137C159.65 16.1504 160.645 14.6519 161.934 13.3243C163.223 11.9937 164.769 10.9298 166.569 10.1356C168.369 9.34147 170.369 8.94287 172.567 8.94287C175.114 8.94287 177.142 9.50929 178.652 10.6391C180.159 11.7689 181.163 13.2434 181.66 15.0655L174.412 17.1364C174.148 16.4321 173.754 15.8897 173.225 15.5061C172.698 15.1255 172.052 14.9337 171.29 14.9337C170.527 14.9337 169.738 15.1105 169.005 15.4671C168.273 15.8237 167.621 16.3302 167.05 16.9835C166.479 17.6399 166.024 18.407 165.69 19.2911C165.352 20.1752 165.184 21.1432 165.184 22.1981C165.184 23.0822 165.331 23.8584 165.624 24.5297C165.917 25.201 166.332 25.7195 166.877 26.0911C167.418 26.4627 168.025 26.6455 168.701 26.6455C169.227 26.6455 169.747 26.5496 170.261 26.3578C170.773 26.166 171.251 25.8963 171.691 25.5427C172.13 25.189 172.495 24.7934 172.788 24.3529L179.202 26.4657C178.382 27.6405 177.387 28.6894 176.215 29.6154C175.042 30.5415 173.724 31.2667 172.262 31.7942C170.797 32.3216 169.23 32.5854 167.561 32.5854H167.558Z" fill="#3632C9"/>
<path d="M187.855 0H194.84L188.031 32.1446H181.047L187.855 0ZM191.895 22.2249C194.209 21.7904 196.009 21.0801 197.298 20.0971C198.586 19.1142 199.229 18.0413 199.229 16.8845C199.229 16.2461 199.047 15.7636 198.679 15.428C198.311 15.0953 197.851 14.9275 197.295 14.9275C196.356 14.9275 195.384 15.3051 194.373 16.0573C193.363 16.8095 192.439 17.8165 191.604 19.0782C190.77 20.3399 190.16 21.6945 189.781 23.142L190.968 16.1952C191.787 14.7087 192.687 13.4201 193.671 12.3292C194.651 11.2353 195.728 10.3992 196.9 9.81782C198.072 9.23642 199.316 8.94271 200.635 8.94271C202.246 8.94271 203.469 9.40124 204.303 10.3183C205.138 11.2353 205.556 12.497 205.556 14.0974C205.556 16.0513 205.021 17.8345 203.954 19.4498C202.883 21.0681 201.34 22.4137 199.319 23.4926L203.23 32.1446H195.761L191.895 22.2249Z" fill="#3632C9"/>
</svg>
